<svg xmlns="http://www.w3.org/2000/svg" xmlns:xlink="http://www.w3.org/1999/xlink" width="60" height="60" viewBox="0 0 60 60"><defs><style>.a{fill:#fff;}.b{clip-path:url(#a);}.c{fill:#839eaa;}</style><clipPath id="a"><rect class="a" width="60" height="60" transform="translate(179 246)"/></clipPath></defs><g class="b" transform="translate(-179 -246)"><g transform="translate(179 246)"><path class="c" d="M33.049,20.793,21.328,16.656v7.953a1.758,1.758,0,0,0,1.758,1.758H46.523a1.758,1.758,0,0,0,1.758-1.758V16.656L36.56,20.793a5.273,5.273,0,0,1-3.511,0Z"/><path class="c" d="M14.3,10.447,34.22,17.478a1.758,1.758,0,0,0,1.17,0l17.579-6.2v6.89a1.758,1.758,0,0,0,3.516,0V8.789a1.758,1.758,0,0,0-1.173-1.658L35.39.1a1.756,1.756,0,0,0-1.17,0L14.3,7.131a1.758,1.758,0,0,0,0,3.315Z"/><path class="c" d="M53.525,36.826l-6.649,8.695a7.032,7.032,0,0,1-5.585,2.76H28.945a1.758,1.758,0,1,1,0-3.516h10.7a4.166,4.166,0,0,0,4.182-4.182,4.1,4.1,0,0,0-4.1-4.022h-12.3a10.18,10.18,0,0,0-12.973-.946l-1.324.946V56.484h30.57a10.547,10.547,0,0,0,8.872-4.844l6.86-10.671a3.608,3.608,0,0,0-5.9-4.143Z"/><path class="c" d="M7.852,33.047H1.758A1.758,1.758,0,0,0,0,34.8V58.242A1.758,1.758,0,0,0,1.758,60H7.852a1.758,1.758,0,0,0,1.758-1.758V34.8A1.758,1.758,0,0,0,7.852,33.047Z"/></g></g></svg>