<svg xmlns="http://www.w3.org/2000/svg" xmlns:xlink="http://www.w3.org/1999/xlink" width="60" height="60" viewBox="0 0 60 60"><defs><style>.a{fill:#fff;}.b{clip-path:url(#a);}.c{fill:#839eaa;}</style><clipPath id="a"><rect class="a" width="60" height="60" transform="translate(179 246)"/></clipPath></defs><g class="b" transform="translate(-179 -246)"><g transform="translate(179 246)"><circle class="c" cx="9.961" cy="9.961" r="9.961" transform="translate(20.039)"/><path class="c" d="M37.319,21.271a13.449,13.449,0,0,1-14.639,0,20.488,20.488,0,0,0-6.373,3.892L30,30.3l13.692-5.135a20.486,20.486,0,0,0-6.373-3.892Z"/><path class="c" d="M51.094,36.328H49.922a1.758,1.758,0,0,0-1.758,1.758v4.688a1.758,1.758,0,0,0,1.758,1.758h1.172a4.1,4.1,0,0,0,0-8.2Z"/><path class="c" d="M10.249,27.454A1.758,1.758,0,0,0,9.492,28.9v3.913h.586a5.279,5.279,0,0,1,5.273,5.273v4.688a5.279,5.279,0,0,1-5.273,5.273H9.492v3.7A1.758,1.758,0,0,0,10.633,53.4L28.242,60V33.394L11.867,27.253a1.757,1.757,0,0,0-1.618.2Z"/><path class="c" d="M44.648,42.773V38.086a5.279,5.279,0,0,1,5.273-5.273h.586V28.9a1.758,1.758,0,0,0-2.375-1.646L31.758,33.394V60l17.609-6.6a1.758,1.758,0,0,0,1.141-1.646v-3.7h-.586a5.279,5.279,0,0,1-5.273-5.273Z"/><path class="c" d="M11.836,42.773V38.086a1.758,1.758,0,0,0-1.758-1.758H8.906a4.1,4.1,0,0,0,0,8.2h1.172A1.758,1.758,0,0,0,11.836,42.773Z"/></g></g></svg>