<svg xmlns="http://www.w3.org/2000/svg" xmlns:xlink="http://www.w3.org/1999/xlink" width="60" height="60" viewBox="0 0 60 60"><defs><style>.a{fill:#fff;stroke:#707070;}.b{clip-path:url(#a);}.c{fill:#839eaa;}</style><clipPath id="a"><rect class="a" width="60" height="60" transform="translate(179 246)"/></clipPath></defs><g class="b" transform="translate(-179 -246)"><g transform="translate(174.714 241.688)"><path class="c" d="M25.179,62.143l-1.607,2.143H45l-1.607-2.143Z"/><path class="c" d="M28.768,55.714,28.05,60H40.521L39.8,55.714Z"/><path class="c" d="M4.286,52.5a1.071,1.071,0,0,0,1.071,1.071H63.214A1.071,1.071,0,0,0,64.286,52.5V49.286h-60Z"/><path class="c" d="M18.268,21.429a15.98,15.98,0,0,0,1.607,6.011l2.743-1.586,1.071,1.864L20.936,29.3a16.248,16.248,0,0,0,4.4,4.4l1.586-2.754,1.864,1.071L27.2,34.768a15.98,15.98,0,0,0,6.011,1.607V33.214h2.143v3.161a15.98,15.98,0,0,0,6.011-1.607l-1.586-2.743,1.864-1.071,1.586,2.754a16.248,16.248,0,0,0,4.4-4.4l-2.754-1.586,1.071-1.864L48.7,27.439A15.98,15.98,0,0,0,50.3,21.429H47.143V19.286H50.3A15.98,15.98,0,0,0,48.7,13.275l-2.743,1.586L44.882,13l2.754-1.586a16.248,16.248,0,0,0-4.4-4.4L41.646,9.761,39.782,8.689l1.586-2.743a15.98,15.98,0,0,0-6.011-1.607V7.5H33.214V4.339A15.98,15.98,0,0,0,27.2,5.946l1.586,2.743L26.925,9.761,25.339,7.007a16.248,16.248,0,0,0-4.4,4.4L23.689,13l-1.071,1.864-2.743-1.586a15.98,15.98,0,0,0-1.607,6.011h3.161v2.143ZM33.214,9.643h2.143v8.868l5.893-3.37L42.313,17l-7.5,4.286a1.071,1.071,0,0,1-1.6-.93Z"/><path class="c" d="M63.214,17.143H52.2a18.677,18.677,0,0,1,.3,3.214,18.214,18.214,0,0,1-36.429,0,18.677,18.677,0,0,1,.3-3.214H5.357a1.071,1.071,0,0,0-1.071,1.071V47.143h60V18.214A1.071,1.071,0,0,0,63.214,17.143ZM17.143,34.286h2.143v2.143H17.143Zm-10.714,0H15v2.143H6.429ZM23.571,45H6.429V42.857H23.571Zm0-4.286H6.429V38.571H23.571Zm25.714-6.429h2.143v2.143H49.286ZM62.143,45H45V42.857H62.143Zm0-4.286H45V38.571H62.143Zm0-4.286H53.571V34.286h8.571Z"/></g></g></svg>